# xmcd
#
# Track frame offsets: 
#        182
#        24557
#        48415
#        65565
#        91265
#        109175
#        129630
#        147510
#        164230
#        176332
#        194310
#        209097
#        231797
#
# Disc length: 3301 seconds
#
# Revision: 3
# Processed by: cddbd v1.5.2PL0 Copyright (c) Steve Scherf et al.
# Submitted via: ExactAudioCopyFreeDBPlugin 1.0
#
DISCID=c40ce30d
DTITLE=Po' Broke 'N Lonely? - Forbidden Vibe
DYEAR=1995
DGENRE=R&B
TTITLE0=Twisted
TTITLE1=Mr. Go Down
TTITLE2=Voyeurs
TTITLE3=Forbidden Vibe
TTITLE4=Hideaway
TTITLE5=Don't Waste Your Time
TTITLE6=Sexy Dance
TTITLE7=Got To Give It Up
TTITLE8=Under My Spell
TTITLE9=Three Honeys
TTITLE10=Intensifyoluv
TTITLE11=Holdin' Out For Love
TTITLE12=Did You Love Me
EXTD=YEAR: 1995
EXTT0=
EXTT1=
EXTT2=
EXTT3=
EXTT4=
EXTT5=
EXTT6=
EXTT7=
EXTT8=
EXTT9=
EXTT10=
EXTT11=
EXTT12=
PLAYORDER=
